<?xml version="1.0" standalone="no"?>
<!DOCTYPE svg PUBLIC "-//W3C//DTD SVG 20010904//EN"
 "https://www.w3.org/TR/2001/REC-SVG-20010904/DTD/svg10.dtd">
<svg version="1.0" xmlns="https://www.w3.org/2000/svg"
 width="600.000000pt" height="600.000000pt" viewBox="0 0 600.000000 600.000000"
 preserveAspectRatio="xMidYMid meet">
<metadata>
Created by potrace 1.11, written by Peter Selinger 2001-2013
</metadata>
<g transform="translate(0.000000,600.000000) scale(0.100000,-0.100000)"
fill="#000000" stroke="none">
<path d="M2855 5544 c-347 -47 -497 -99 -728 -250 -115 -76 -269 -224 -341
-331 -27 -40 -55 -73 -62 -73 -6 0 -17 -15 -24 -32 -6 -18 -43 -98 -80 -178
-113 -239 -142 -342 -155 -541 l-7 -106 -36 -13 c-60 -21 -215 -116 -296 -180
-176 -142 -304 -335 -375 -567 -56 -182 -66 -252 -65 -448 0 -167 2 -186 28
-270 15 -49 47 -128 72 -174 24 -47 41 -87 37 -91 -4 -4 -37 -27 -73 -52 -148
-105 -280 -241 -280 -289 0 -15 7 -35 16 -44 23 -22 99 -59 166 -81 l58 -18
-6 -52 c-4 -29 -4 -72 0 -97 7 -44 8 -46 69 -70 64 -26 151 -41 294 -53 52 -4
87 -11 94 -20 9 -11 10 -66 5 -212 -9 -233 -24 -343 -70 -512 -52 -189 -52
-192 -22 -254 38 -78 128 -139 258 -175 l60 -16 -2 -120 c-1 -66 -2 -129 -3
-140 -2 -54 4 -85 16 -85 11 0 15 36 20 166 3 91 7 167 9 169 2 2 46 -2 98 -8
70 -8 149 -7 295 1 246 15 452 15 531 1 32 -5 131 -26 219 -44 346 -74 613
-69 1109 21 112 20 255 38 349 44 88 6 190 17 227 24 88 19 301 117 311 143 4
11 29 29 56 40 84 37 84 37 104 -42 10 -38 32 -160 49 -270 17 -110 33 -210
36 -222 6 -31 34 -30 34 1 0 39 -78 486 -93 538 l-15 47 39 25 c55 37 61 81
24 191 -7 22 -38 153 -69 290 -65 291 -94 390 -116 390 -17 0 -17 1 15 -111
13 -46 41 -159 61 -251 20 -93 51 -227 70 -299 19 -71 34 -135 34 -142 0 -20
-66 -62 -152 -98 -48 -20 -93 -46 -108 -63 -23 -26 -45 -38 -176 -97 -74 -32
-179 -52 -329 -59 -77 -4 -237 -25 -390 -51 -357 -59 -452 -68 -679 -61 -194
7 -214 9 -486 68 l-155 34 -235 -4 c-525 -9 -619 -7 -709 14 -114 26 -217 79
-258 134 -43 56 -43 97 2 254 54 192 66 279 72 527 5 213 4 226 -14 242 -14
13 -51 20 -143 29 -110 9 -280 43 -280 56 0 2 11 16 25 31 35 38 83 157 108
271 11 53 22 97 22 99 1 1 52 8 114 16 l112 14 78 -33 c195 -82 419 -138 691
-172 201 -25 807 -25 1095 0 628 55 1315 176 1574 279 l74 29 61 -25 c34 -14
68 -27 76 -29 10 -3 7 -8 -11 -15 -66 -26 -71 -55 -33 -181 27 -89 65 -155
111 -191 17 -13 23 -24 16 -28 -130 -81 -243 -160 -243 -169 0 -25 29 -12 134
57 58 38 124 79 146 90 25 13 42 29 46 45 8 31 -3 105 -20 147 -13 31 -13 31
43 78 69 57 125 119 146 160 23 44 16 91 -15 107 -43 20 -132 42 -213 52 -43
5 -80 11 -82 13 -2 2 7 17 21 33 44 50 100 138 114 177 9 24 18 34 24 29 22
-18 121 -41 175 -41 229 0 368 101 450 326 56 153 59 349 9 499 -47 140 -130
259 -212 303 -21 11 -54 17 -103 16 -44 0 -73 4 -73 11 -1 29 -31 223 -45 282
-27 116 -75 252 -144 403 -79 172 -142 281 -228 393 -35 45 -74 98 -87 117
-26 38 -212 208 -311 282 -217 164 -527 315 -783 382 -191 50 -254 58 -502 61
-129 2 -248 1 -265 -1z m65 -310 c243 -20 820 -100 820 -113 0 -3 -24 -19 -54
-34 -29 -16 -82 -52 -117 -81 -118 -97 -182 -197 -183 -287 -1 -55 16 -79 81
-110 39 -19 56 -21 127 -16 92 6 107 12 219 75 66 37 90 46 146 50 52 3 75 0
102 -13 55 -29 131 -89 200 -158 85 -85 122 -107 182 -107 76 0 124 30 155 98
40 89 31 207 -27 320 -24 47 -14 54 30 24 40 -27 145 -148 208 -242 47 -71 63
-106 94 -212 88 -298 112 -453 112 -726 0 -198 1 -213 19 -218 11 -4 29 2 45
15 40 33 120 69 178 81 71 15 120 0 177 -53 103 -95 165 -252 173 -438 7 -139
-9 -221 -67 -344 -48 -102 -92 -153 -171 -195 -55 -29 -75 -34 -162 -39 -116
-7 -180 5 -230 43 -43 33 -57 28 -55 -23 1 -46 -42 -126 -108 -200 -45 -50
-47 -51 -104 -51 -106 0 -159 -39 -115 -84 14 -14 12 -17 -22 -31 -210 -89
-939 -221 -1488 -269 -794 -70 -1396 -23 -1804 141 -273 109 -423 239 -502
433 -52 127 -64 199 -63 365 0 167 21 292 74 455 98 300 318 547 605 680 39
18 77 36 85 40 12 6 16 37 22 141 9 177 55 335 160 543 28 55 32 59 42 41 21
-38 68 -74 103 -81 79 -15 202 34 388 155 60 39 119 74 132 77 57 15 95 -13
219 -158 113 -130 159 -152 230 -109 89 54 89 229 -1 418 -43 91 -86 146 -147
185 -27 17 -48 33 -48 34 0 4 118 -4 340 -22z m-775 -13 c-44 -16 -88 -32 -97
-36 -32 -13 -19 3 29 34 37 25 57 31 97 31 l51 -1 -80 -28z m2812 -843 c-3 -8
-6 -5 -6 6 -1 11 2 17 5 13 3 -3 4 -12 1 -19z m-4081 -2133 c12 -29 -39 -120
-118 -213 -15 -18 -28 -37 -28 -42 0 -17 26 -11 45 10 30 33 95 24 95 -13 0
-77 -94 -317 -124 -317 -17 0 -20 28 -10 93 6 36 8 37 40 31 27 -5 34 -3 34 9
0 17 -9 21 -85 37 -66 14 -174 56 -204 79 -18 14 -22 23 -16 41 11 36 172 189
259 248 82 55 103 62 112 37z m3974 -14 c153 -20 248 -45 257 -67 13 -34 -94
-162 -197 -235 -25 -18 -57 -43 -71 -56 -20 -19 -28 -21 -36 -11 -18 23 -43
110 -43 149 0 36 2 39 40 50 22 7 40 15 40 18 0 3 3 16 6 28 5 18 0 22 -28 28
-49 11 -160 56 -180 73 -24 20 -23 30 5 35 41 8 61 7 207 -12z m-3808 -114
c21 -12 38 -24 38 -27 0 -3 -42 -12 -92 -18 -51 -7 -108 -16 -125 -19 -41 -7
-42 5 -4 57 15 21 34 53 41 70 l12 30 47 -35 c25 -20 63 -46 83 -58z m3866
-281 c14 -38 19 -103 9 -113 -8 -7 -97 82 -97 97 0 6 6 10 13 10 8 0 22 9 32
20 24 27 29 26 43 -14z"/>
<path d="M1600 3856 c0 -23 2 -24 123 -30 67 -4 226 -16 352 -27 127 -12 286
-21 355 -22 119 -2 125 -1 125 18 0 23 -10 25 -335 50 -113 9 -250 20 -305 25
-55 5 -148 9 -207 10 -107 0 -108 0 -108 -24z"/>
<path d="M3473 3693 c-22 -8 -15 -42 10 -47 12 -3 87 -10 167 -16 80 -6 224
-20 320 -30 192 -21 515 -50 559 -50 33 0 50 28 28 45 -8 6 -93 16 -188 23
-96 7 -253 22 -349 33 -164 18 -503 50 -525 48 -5 0 -16 -3 -22 -6z"/>
<path d="M5154 3106 c-28 -7 -67 -22 -87 -35 -40 -24 -78 -77 -70 -98 9 -22
28 -14 40 17 9 25 17 30 43 30 100 0 186 -67 218 -170 19 -64 35 -80 40 -42
12 80 -82 207 -171 231 -79 22 -43 36 101 38 97 1 127 5 127 15 0 27 -151 36
-241 14z"/>
<path d="M3960 2414 c-52 -2 -302 -13 -555 -24 -319 -14 -725 -23 -1325 -28
-796 -8 -867 -10 -891 -26 -31 -20 -43 -70 -22 -92 26 -26 89 -35 303 -46 364
-19 639 -16 845 9 291 36 634 54 1220 63 558 9 913 28 963 52 37 18 37 58 -1
76 -29 14 -337 23 -537 16z m526 -46 c4 -5 5 -11 2 -14 -17 -16 -403 -36 -888
-44 -300 -5 -621 -14 -715 -20 -341 -21 -452 -30 -570 -45 -176 -23 -413 -29
-735 -16 -348 13 -419 26 -377 69 16 16 72 18 740 24 743 7 1281 21 1727 43
270 14 803 15 816 3z"/>
<path d="M2896 172 c-5 -8 4 -81 19 -149 3 -13 12 -23 20 -23 12 0 14 11 8 63
-3 34 -9 73 -13 86 -7 26 -24 38 -34 23z"/>
</g>
</svg>
