<!-- Generated by IcoMoon.io -->
<svg version="1.1" xmlns="http://www.w3.org/2000/svg" width="30" height="30" viewBox="0 0 448 448">
<title></title>
<g id="icomoon-ignore">
</g>
<path fill="#199de2" d="M88.003 201.5c-1.75-4.25-1.999-8.5-1.999-12.999 0-7 4.501-18.25 8.75-23.5-0.25-6.5 2.5-19.75 7.5-24 0-46.25 35.75-104.5 77.5-124.501 25.75-12.25 52.75-16.5 81-16.5 22 0 46 5.25 66.5 13.75 58.751 24.75 72 70.75 84.5 129.5l0.25 1.25c7.25 11 13.75 24 13.75 37.5 0 6.75-4.501 13.5-4.501 19.5 0 0.5 1.5 2.5 1.75 3 21.5 31.75 41 66.25 41 105.75 0 8.75-4.75 39.25-18.75 39.25-9.75 0-20.5-23.751-24-30.25-0.25-0.25-0.501-0.25-0.749-0.25l-1.25 1c-8 20.751-16.751 40.25-33.001 55.75 14.25 13.75 37.25 12.5 41.499 36.25-1.25 2.75-0.749 5.75-2.75 8.5-14.25 21.5-52.5 24.25-75.5 24.25-30.5 0-55.25-8-84-16.5-6-1.75-15-0.749-21.5-1.5-15.25 16.751-52.5 21.25-74 21.25-19 0-92.501-1.25-92.501-33.75 0-14 3-18 12.751-27 7.75-1.5 13.5-5.75 22.501-6.25 1.25 0 2.25-0.25 3.5-0.501 0.25-0.25 0.501-0.25 0.501-1l-0.501-0.749c-17.25-4-41.5-47.5-45.251-65.5l-1.25-0.749c-1.75 0-2.5 3.75-3 5-5.5 12.751-18.5 26.5-33.001 28h-0.25c-2 0-1.25-2-2.75-2.5-3.5-8.25-5.75-15.75-5.75-25 0-50 24-87 63-116.5z"></path>
</svg>
