<!-- Generated by IcoMoon.io -->
<svg version="1.1" xmlns="http://www.w3.org/2000/svg" width="30" height="30" viewBox="0 0 512 512">
<title></title>
<g id="icomoon-ignore">
</g>
<path fill="#e6162d" d="M215.424 433.558c-84.843 8.341-158.166-29.995-163.669-85.76-5.526-55.659 58.858-107.669 143.786-116.075 84.885-8.405 158.144 29.952 163.648 85.718 5.526 55.466-58.858 107.712-143.722 116.032l-0.042 0.086zM193.066 367.339c-8.192 13.142-25.77 18.858-39.018 12.842-13.056-5.952-16.917-21.142-8.661-33.984 8.085-12.693 25.088-18.368 38.25-12.822 13.269 5.611 17.494 20.736 9.429 33.962zM220.16 332.63c-3.008 5.056-9.578 7.531-14.698 5.397-5.035-1.92-6.678-7.702-3.776-12.502 2.944-4.842 9.302-7.382 14.336-5.12 5.099 1.92 6.72 7.68 3.84 12.822l0.298-0.598zM223.915 274.624c-40.384-10.517-86.037 9.6-103.616 45.184-17.835 36.352-0.555 76.608 40.235 89.813 42.304 13.654 92.118-7.274 109.483-46.486 17.067-38.25-4.288-77.696-46.101-88.512zM385.259 248.512c-7.382-2.24-12.16-3.84-8.64-13.12 8-20.843 8.96-38.486 0-51.286-16.661-23.722-62.187-22.464-114.432-0.64 0 0-16.341 7.061-12.181-5.781 8.021-25.963 6.72-47.446-5.76-59.925-28.544-28.523-103.872 0.96-168.278 65.707-48.042 48.427-75.968 99.69-75.968 143.957 0 84.928 108.778 136.427 215.168 136.427 139.435 0 232.278-81.088 232.278-145.494 0-38.87-33.002-60.885-62.187-70.058v0.214zM425.962 139.882c-16.341-18.261-40.704-25.323-63.147-20.523-9.301 1.92-15.062 10.901-13.142 19.882 1.92 8.96 10.901 14.742 19.882 12.843 10.901-2.24 22.762 0.939 30.762 9.92 8.022 8.982 9.942 20.843 6.741 31.424-2.901 8.661 1.899 18.262 10.88 21.162 8.64 2.538 18.283-2.24 21.163-10.922 7.040-21.781 2.56-46.464-13.781-64.746l0.64 0.96zM477.546 93.056c-33.622-37.483-83.306-51.605-129.152-41.984-10.582 2.218-17.322 12.523-15.062 23.062 2.219 10.582 12.502 17.344 23.082 15.082 32.683-7.061 67.947 3.2 91.648 29.504 23.723 26.582 30.486 62.784 20.202 94.208-3.52 10.24 2.262 21.483 12.502 24.683 10.219 3.52 21.142-2.219 24.683-12.501 14.4-44.544 5.142-95.53-28.544-133.013l0.64 0.96z"></path>
</svg>
