<!-- Generated by IcoMoon.io -->
<svg version="1.1" xmlns="http://www.w3.org/2000/svg" width="30" height="30" viewBox="0 0 512 512">
<title></title>
<g id="icomoon-ignore">
</g>
<path fill="#7bb32e" d="M502.208 271.957c-12.992-29.44-37.504-52.822-65.963-67.221-50.219-25.429-112.661-25.28-162.752 0.64-34.794 17.856-63.851 49.856-72.085 88.789-6.784 28.672-0.704 59.541 14.506 84.501 22.635 37.589 63.552 61.589 106.048 69.291 30.784 6.25 62.635 2.538 92.544-6.080 17.962 6.954 33.962 18.219 51.37 26.582-4.502-15.082-9.301-29.995-14.421-44.842 19.541-13.866 37.248-31.168 47.872-52.885 15.872-30.187 16.832-67.648 2.88-98.774zM290.496 70.016c-53.226-29.952-119.51-34.453-176.768-13.76-37.632 13.547-71.68 38.72-92.715 72.96-19.093 30.934-26.24 69.504-17.046 104.896 9.238 39.253 36.502 72.171 69.59 94.144-6.4 18.134-12.48 36.245-18.24 54.507 20.8-10.88 41.6-22.25 62.421-33.301 24.96 8 51.52 11.925 78.080 11.050-7.040-20.118-8.64-41.92-5.44-62.954 4.8-29.248 20.8-56 42.538-75.819 36.822-34.453 88.981-48.982 138.582-45.462-9.301-45.547-41.301-84.032-81.579-106.24h0.576zM327.466 283.115c-4.459 13.909-24.661 18.091-34.454 7.51-10.795-9.792-6.592-30.25 7.574-34.624 15.659-6.613 33.75 11.456 26.88 27.115zM429.76 285.077c-5.462 12.502-24.341 15.424-33.621 5.76-4.459-4.075-5.76-10.219-7.339-15.574 2.219-9.771 8.96-19.904 19.84-20.374 15.040-2.090 28.502 16.491 20.8 30.208h0.32zM277.12 147.392c0.171 20.501-27.2 33.302-42.56 19.392-15.936-11.413-11.413-39.19 7.296-44.928 16.747-6.72 36.544 7.339 35.221 25.28l0.043 0.256zM147.862 152.597c-3.669 17.814-27.541 26.41-41.514 14.464-16.192-11.413-11.648-39.702 7.36-45.462 18.624-7.168 39.787 11.733 34.154 30.998z"></path>
</svg>
